<?xml version="1.0" encoding="utf-8"?>
<!-- Generator: Adobe Illustrator 21.1.0, SVG Export Plug-In . SVG Version: 6.00 Build 0)  -->
<svg version="1.1" id="Layer_1" xmlns="http://www.w3.org/2000/svg" xmlns:xlink="http://www.w3.org/1999/xlink" x="0px" y="0px"
	 viewBox="0 0 1000 500" style="enable-background:new 0 0 1000 500;" xml:space="preserve">
<style type="text/css">
	.st0{fill:#003D71;}
	.st1{fill:#7CA4BB;}
	.st2{fill:#1A3F70;}
</style>
<g>
	<g>
		<path class="st0" d="M171.8,268.1c0-12.4,1.6-22.8,4.7-31.4c3.1-8.6,7.6-15.5,13.4-20.7c5.8-5.2,12.9-9,21.2-11.2
			c8.3-2.3,17.5-3.4,27.7-3.4h49.8c8.1,0,15.1-2.1,20.9-6.2c5.8-4.1,8.7-11.3,8.7-21.5c0-10.4-2.9-17.6-8.7-21.7
			c-5.8-4-12.8-6-20.9-6H178.1V107h116.8c10.2,0,19.4,1.1,27.7,3.3c8.3,2.2,15.4,5.9,21.2,11.1c5.8,5.2,10.3,12.1,13.4,20.7
			c3.1,8.6,4.7,19.2,4.7,31.7c0,12.4-1.6,22.8-4.7,31.4c-3.1,8.6-7.6,15.5-13.4,20.7c-5.8,5.2-12.9,9-21.2,11.2
			c-8.3,2.3-17.5,3.4-27.7,3.4H245c-8.1,0-15.1,2.1-20.9,6.2c-5.8,4.1-8.7,11.3-8.7,21.5v27.7h143.3v39.1H171.8V268.1z"/>
		<path class="st0" d="M364.9,243.7l128-136.8h55.7v143.3h31.1v39.1h-31.1v45.6h-43.6v-45.6H364.9V243.7z M505.1,250.2v-98.7
			l-90.3,98.7H505.1z"/>
		<path class="st1" d="M916.8,179.6C865.1,125,779.6,78.9,676.2,49.7c-8.3-2.4-17.3-4.7-29.1-7.7c-69.4-16.9-144.6-25.8-217.5-25.8
			c-13.7,0-27.4,0.3-40.8,0.9C265.6,23.1,154,56.6,90.3,106.9c-10.9,8.6-20.6,17.9-28.6,27.4c-35.3,42.9-40,91.6-13.7,140.6
			C85.7,345,181.5,407.7,310.8,446.8c26.2,7.9,53.3,14.7,80.8,20.3l9.8-53.9c-14.2-3.3-28.2-7-41.9-11.1
			C235.5,365,150,301.7,130.7,232.7c-10.5-37.7-0.9-74.4,27.7-106.1c6.2-7.3,12.7-13.8,19.9-19.8C229.6,63.3,318,35.5,420.7,30.3
			c11.7-0.6,23.7-0.9,35.6-0.9c66.7,0,134.9,9.2,197.3,26.7l0.6,0.1c0.6,0.1,1.1,0.3,1.4,0.4C772.1,89.8,860.9,153.1,887.5,222
			c13.1,34,10.3,67.5-8,96.9c-4.4,7.3-10,14.5-16.8,21.8c-13.1,14.9-30,28.2-50.1,39.9l26.3,59c41.9-18,75.6-40.5,98.3-66.6
			c6.8-8,12.2-15.8,16.6-23.8C982.8,296.8,969.3,235,916.8,179.6z"/>
		<path class="st0" d="M799.4,146H674.8V107h177.5V146L740.2,334.9h-56.1L799.4,146z"/>
		<path class="st0" d="M645.5,80.8l25.7-0.1l-78.4,301.2l-27.7,0.1L645.5,80.8z"/>
		<path class="st0" d="M402.9,458.5l25.9,3.9c1.8,0.3,3.5,0.1,5-0.7c1.5-0.7,2.4-2.3,2.7-4.6c0.3-2.3-0.1-4.1-1.2-5.2
			c-1.2-1.1-2.7-1.8-4.5-2.1l-12.1-1.8c-2.3-0.3-4.4-0.9-6.2-1.7c-1.8-0.8-3.3-1.9-4.4-3.3s-1.9-3.1-2.3-5.2c-0.4-2.1-0.4-4.5,0-7.3
			c0.4-2.9,1.1-5.2,2.2-7.1c1-1.8,2.3-3.3,3.8-4.3c1.5-1,3.2-1.6,5.2-1.8c2-0.2,4.1-0.1,6.4,0.2l27.3,4.1l-1.3,8.9l-25.9-3.9
			c-1.8-0.3-3.5-0.1-5,0.7c-1.5,0.7-2.4,2.3-2.7,4.6c-0.4,2.3,0.1,4.1,1.2,5.2c1.2,1.1,2.7,1.8,4.5,2.1l12.1,1.8
			c2.3,0.3,4.4,0.9,6.2,1.7s3.3,1.9,4.4,3.3s1.9,3.1,2.3,5.2c0.4,2.1,0.4,4.5,0,7.3c-0.4,2.9-1.2,5.3-2.2,7.1
			c-1,1.8-2.3,3.2-3.8,4.2c-1.5,1-3.2,1.6-5.2,1.8c-2,0.2-4.1,0.1-6.4-0.2l-27.3-4.1L402.9,458.5z"/>
		<path class="st0" d="M454.4,448.7c0.5-5,1.6-9.2,3.2-12.6c1.6-3.3,3.6-6,6.1-7.9c2.4-1.9,5.1-3.2,8.2-3.8c3-0.6,6.3-0.8,9.6-0.4
			c3.3,0.3,6.3,1.1,9.2,2.4c2.8,1.3,5.3,3.1,7.3,5.4c2,2.4,3.4,5.4,4.4,9c0.9,3.6,1.1,7.9,0.6,13c-0.5,5-1.6,9.2-3.3,12.6
			c-1.7,3.3-3.7,6-6.1,7.9c-2.4,1.9-5.2,3.2-8.2,3.8c-3,0.6-6.2,0.8-9.5,0.4c-3.4-0.4-6.5-1.2-9.3-2.4c-2.8-1.3-5.3-3.1-7.2-5.4
			s-3.4-5.4-4.3-9C454,458.1,453.8,453.8,454.4,448.7z M476.7,469.6c1.9,0.2,3.8,0.1,5.6-0.3c1.8-0.4,3.4-1.2,4.8-2.5
			c1.4-1.3,2.7-3,3.7-5.3c1-2.3,1.7-5.2,2.1-8.7c0.4-3.5,0.3-6.5-0.2-9c-0.5-2.4-1.3-4.4-2.5-6c-1.1-1.5-2.5-2.7-4.2-3.4
			c-1.7-0.8-3.5-1.2-5.4-1.4c-2-0.2-3.9-0.1-5.7,0.3c-1.8,0.4-3.4,1.2-4.8,2.5c-1.4,1.3-2.6,3-3.6,5.3c-1,2.3-1.7,5.2-2,8.7
			c-0.4,3.5-0.3,6.5,0.2,9c0.5,2.4,1.3,4.4,2.4,6c1.1,1.5,2.5,2.7,4.2,3.4C472.8,468.9,474.7,469.4,476.7,469.6z"/>
		<path class="st0" d="M575,440.1l-17.9-0.2l0.1-9l45.9,0.6l-0.1,9l-17.9-0.2l-0.5,43.5l-10-0.1L575,440.1z"/>
		<path class="st0" d="M608.9,432l10.7-0.8l13.9,35.8l6.9-37.3l10.3-0.7l12.2,36l8.6-37.5l10.7-0.8l-13,53.6l-10.7,0.8l-11.7-34.6
			l-6.6,35.9l-10.7,0.8L608.9,432z"/>
		<path class="st0" d="M693.7,423.9l10.7-1.8l30.9,48l-11,1.9l-5.9-9.6l-24.4,4.2l-2.4,11.1l-11,1.9L693.7,423.9z M713.2,454.1
			L701,434.4l-4.9,22.6L713.2,454.1z"/>
		<path class="st0" d="M725.2,418.3l28.5-8.7c2.1-0.6,4.2-1,6.2-1c2,0,3.9,0.3,5.7,1c1.8,0.7,3.4,2,4.8,3.6c1.4,1.7,2.5,3.9,3.4,6.7
			c0.7,2.4,1.1,4.6,1.1,6.6s-0.3,3.7-0.9,5.3c-0.6,1.5-1.5,2.9-2.6,4c-1.1,1.1-2.4,2.1-3.9,2.9l16.9,16.4l-11.1,3.4l-16.1-16.3
			l-13,4l5.9,19.4l-9.6,2.9L725.2,418.3z M760.5,431.9c1.6-0.5,2.8-1.4,3.6-2.8c0.8-1.4,0.8-3.4,0-6.2c-0.7-2.4-1.8-3.9-3.2-4.5
			c-1.4-0.6-3-0.7-4.6-0.2l-18.9,5.8l4.2,13.6L760.5,431.9z"/>
		<path class="st0" d="M803.1,445.9c-2.8,0.2-5.4-0.2-8.1-1.3c-2.6-1.1-5.1-2.9-7.5-5.5c-2.4-2.6-4.6-6.1-6.5-10.6
			s-3.1-8.4-3.4-11.9c-0.3-3.5,0-6.6,0.9-9.3c1-2.7,2.4-5,4.5-6.9c2-1.9,4.4-3.5,7.1-4.7l17.1-7.6l3.6,8.2l-15.7,7
			c-1.4,0.6-2.7,1.4-3.8,2.4c-1.1,1-2,2.1-2.6,3.4c-0.6,1.3-1,2.9-1,4.7c-0.1,1.8,0.3,3.9,1,6.2l27.3-12.1l3.6,8.2l-27.3,12.1
			c1.3,2.1,2.6,3.8,4,4.9c1.4,1.2,2.8,2,4.2,2.4c1.4,0.4,2.9,0.6,4.3,0.4c1.4-0.2,2.9-0.6,4.3-1.2l15.7-7l3.6,8.2l-17.1,7.6
			C808.6,445,805.9,445.7,803.1,445.9z"/>
		<polygon class="st0" points="551.7,440 552.2,431.1 521.5,429.1 512.6,428.5 512,437.4 511.2,450.2 510.6,459.1 509.2,480.4 
			518.2,481 519.5,459.7 550.3,461.7 550.8,452.7 520.1,450.8 520.9,438 		"/>
	</g>
	<g>
		<path class="st2" d="M891.6,465.6v-22.1h-8.4v-3.8h21.2v3.8h-8.5v22.1H891.6z M907.3,465.6v-25.9h6.4l6.5,20.7l6.3-20.7h6.2v25.9
			h-3.9v-21.7l-6.7,21.7h-3.9l-7-22.1v22.1H907.3z"/>
	</g>
</g>
</svg>
