<?xml version="1.0" encoding="UTF-8"?>
<svg enable-background="new 0 0 1000 500" version="1.1" viewBox="0 0 1e3 500" xml:space="preserve" xmlns="http://www.w3.org/2000/svg">
<style type="text/css">
	.st0{fill:#003D71;}
	.st1{fill:#7CA4BB;}
	.st2{fill:#1A3F70;}
</style>
		<path class="st0" d="m171.8 268.1c0-12.4 1.6-22.8 4.7-31.4s7.6-15.5 13.4-20.7 12.9-9 21.2-11.2c8.3-2.3 17.5-3.4 27.7-3.4h49.8c8.1 0 15.1-2.1 20.9-6.2s8.7-11.3 8.7-21.5c0-10.4-2.9-17.6-8.7-21.7-5.8-4-12.8-6-20.9-6h-110.5v-39h116.8c10.2 0 19.4 1.1 27.7 3.3s15.4 5.9 21.2 11.1 10.3 12.1 13.4 20.7 4.7 19.2 4.7 31.7c0 12.4-1.6 22.8-4.7 31.4s-7.6 15.5-13.4 20.7-12.9 9-21.2 11.2c-8.3 2.3-17.5 3.4-27.7 3.4h-49.9c-8.1 0-15.1 2.1-20.9 6.2s-8.7 11.3-8.7 21.5v27.7h143.3v39.1h-186.9v-66.9z"/>
		<path class="st0" d="m364.9 243.7 128-136.8h55.7v143.3h31.1v39.1h-31.1v45.6h-43.6v-45.6h-140.1v-45.6zm140.2 6.5v-98.7l-90.3 98.7h90.3z"/>
		<path class="st1" d="m916.8 179.6c-51.7-54.6-137.2-100.7-240.6-129.9-8.3-2.4-17.3-4.7-29.1-7.7-69.4-16.9-144.6-25.8-217.5-25.8-13.7 0-27.4 0.3-40.8 0.9-123.2 6-234.8 39.5-298.5 89.8-10.9 8.6-20.6 17.9-28.6 27.4-35.3 42.9-40 91.6-13.7 140.6 37.7 70.1 133.5 132.8 262.8 171.9 26.2 7.9 53.3 14.7 80.8 20.3l9.8-53.9c-14.2-3.3-28.2-7-41.9-11.1-124-37.1-209.5-100.4-228.8-169.4-10.5-37.7-0.9-74.4 27.7-106.1 6.2-7.3 12.7-13.8 19.9-19.8 51.3-43.5 139.7-71.3 242.4-76.5 11.7-0.6 23.7-0.9 35.6-0.9 66.7 0 134.9 9.2 197.3 26.7l0.6 0.1c0.6 0.1 1.1 0.3 1.4 0.4 116.5 33.2 205.3 96.5 231.9 165.4 13.1 34 10.3 67.5-8 96.9-4.4 7.3-10 14.5-16.8 21.8-13.1 14.9-30 28.2-50.1 39.9l26.3 59c41.9-18 75.6-40.5 98.3-66.6 6.8-8 12.2-15.8 16.6-23.8 29-52.4 15.5-114.2-37-169.6z"/>
		<path class="st0" d="M799.4,146H674.8V107h177.5V146L740.2,334.9h-56.1L799.4,146z"/>
		<path class="st0" d="m645.5 80.8 25.7-0.1-78.4 301.2-27.7 0.1 80.4-301.2z"/>
		<path class="st0" d="m402.9 458.5 25.9 3.9c1.8 0.3 3.5 0.1 5-0.7 1.5-0.7 2.4-2.3 2.7-4.6s-0.1-4.1-1.2-5.2c-1.2-1.1-2.7-1.8-4.5-2.1l-12.1-1.8c-2.3-0.3-4.4-0.9-6.2-1.7s-3.3-1.9-4.4-3.3-1.9-3.1-2.3-5.2-0.4-4.5 0-7.3c0.4-2.9 1.1-5.2 2.2-7.1 1-1.8 2.3-3.3 3.8-4.3s3.2-1.6 5.2-1.8 4.1-0.1 6.4 0.2l27.3 4.1-1.3 8.9-25.9-3.9c-1.8-0.3-3.5-0.1-5 0.7-1.5 0.7-2.4 2.3-2.7 4.6-0.4 2.3 0.1 4.1 1.2 5.2 1.2 1.1 2.7 1.8 4.5 2.1l12.1 1.8c2.3 0.3 4.4 0.9 6.2 1.7s3.3 1.9 4.4 3.3 1.9 3.1 2.3 5.2 0.4 4.5 0 7.3c-0.4 2.9-1.2 5.3-2.2 7.1s-2.3 3.2-3.8 4.2-3.2 1.6-5.2 1.8-4.1 0.1-6.4-0.2l-27.3-4.1 1.3-8.8z"/>
		<path class="st0" d="m454.4 448.7c0.5-5 1.6-9.2 3.2-12.6 1.6-3.3 3.6-6 6.1-7.9 2.4-1.9 5.1-3.2 8.2-3.8 3-0.6 6.3-0.8 9.6-0.4 3.3 0.3 6.3 1.1 9.2 2.4 2.8 1.3 5.3 3.1 7.3 5.4 2 2.4 3.4 5.4 4.4 9 0.9 3.6 1.1 7.9 0.6 13-0.5 5-1.6 9.2-3.3 12.6-1.7 3.3-3.7 6-6.1 7.9s-5.2 3.2-8.2 3.8-6.2 0.8-9.5 0.4c-3.4-0.4-6.5-1.2-9.3-2.4-2.8-1.3-5.3-3.1-7.2-5.4s-3.4-5.4-4.3-9c-1.1-3.6-1.3-7.9-0.7-13zm22.3 20.9c1.9 0.2 3.8 0.1 5.6-0.3s3.4-1.2 4.8-2.5 2.7-3 3.7-5.3 1.7-5.2 2.1-8.7 0.3-6.5-0.2-9c-0.5-2.4-1.3-4.4-2.5-6-1.1-1.5-2.5-2.7-4.2-3.4-1.7-0.8-3.5-1.2-5.4-1.4-2-0.2-3.9-0.1-5.7 0.3s-3.4 1.2-4.8 2.5-2.6 3-3.6 5.3-1.7 5.2-2 8.7c-0.4 3.5-0.3 6.5 0.2 9 0.5 2.4 1.3 4.4 2.4 6 1.1 1.5 2.5 2.7 4.2 3.4 1.5 0.7 3.4 1.2 5.4 1.4z"/>
		<path class="st0" d="m575 440.1-17.9-0.2 0.1-9 45.9 0.6-0.1 9-17.9-0.2-0.5 43.5-10-0.1 0.4-43.6z"/>
		<path class="st0" d="m608.9 432 10.7-0.8 13.9 35.8 6.9-37.3 10.3-0.7 12.2 36 8.6-37.5 10.7-0.8-13 53.6-10.7 0.8-11.7-34.6-6.6 35.9-10.7 0.8-20.6-51.2z"/>
		<path class="st0" d="m693.7 423.9 10.7-1.8 30.9 48-11 1.9-5.9-9.6-24.4 4.2-2.4 11.1-11 1.9 13.1-55.7zm19.5 30.2-12.2-19.7-4.9 22.6 17.1-2.9z"/>
		<path class="st0" d="m725.2 418.3 28.5-8.7c2.1-0.6 4.2-1 6.2-1s3.9 0.3 5.7 1 3.4 2 4.8 3.6c1.4 1.7 2.5 3.9 3.4 6.7 0.7 2.4 1.1 4.6 1.1 6.6s-0.3 3.7-0.9 5.3c-0.6 1.5-1.5 2.9-2.6 4s-2.4 2.1-3.9 2.9l16.9 16.4-11.1 3.4-16.1-16.3-13 4 5.9 19.4-9.6 2.9-15.3-50.2zm35.3 13.6c1.6-0.5 2.8-1.4 3.6-2.8s0.8-3.4 0-6.2c-0.7-2.4-1.8-3.9-3.2-4.5s-3-0.7-4.6-0.2l-18.9 5.8 4.2 13.6 18.9-5.7z"/>
		<path class="st0" d="m803.1 445.9c-2.8 0.2-5.4-0.2-8.1-1.3-2.6-1.1-5.1-2.9-7.5-5.5s-4.6-6.1-6.5-10.6-3.1-8.4-3.4-11.9 0-6.6 0.9-9.3c1-2.7 2.4-5 4.5-6.9 2-1.9 4.4-3.5 7.1-4.7l17.1-7.6 3.6 8.2-15.7 7c-1.4 0.6-2.7 1.4-3.8 2.4s-2 2.1-2.6 3.4-1 2.9-1 4.7c-0.1 1.8 0.3 3.9 1 6.2l27.3-12.1 3.6 8.2-27.3 12.1c1.3 2.1 2.6 3.8 4 4.9 1.4 1.2 2.8 2 4.2 2.4s2.9 0.6 4.3 0.4 2.9-0.6 4.3-1.2l15.7-7 3.6 8.2-17.1 7.6c-2.7 1.5-5.4 2.2-8.2 2.4z"/>
		<polygon class="st0" points="551.7 440 552.2 431.1 521.5 429.1 512.6 428.5 512 437.4 511.2 450.2 510.6 459.1 509.2 480.4 518.2 481 519.5 459.7 550.3 461.7 550.8 452.7 520.1 450.8 520.9 438"/>
		<path class="st2" d="m891.6 465.6v-22.1h-8.4v-3.8h21.2v3.8h-8.5v22.1h-4.3zm15.7 0v-25.9h6.4l6.5 20.7 6.3-20.7h6.2v25.9h-3.9v-21.7l-6.7 21.7h-3.9l-7-22.1v22.1h-3.9z"/>
</svg>
