<?xml version="1.0" encoding="UTF-8"?>
<svg data-name="Layer 1" viewBox="0 0 1089.9 822.51" xmlns="http://www.w3.org/2000/svg">
<title>certificate</title>
<path transform="translate(-55.067 -38.747)" d="m988.8 484.31c0 126.51-74.17 238.43-187.87 306.56-72.9 43.69-162.06 69.38-258.33 69.38-128.25 0-226.08-48.47-299.67-122.72-67.83-68.42-115.06-158.75-146.53-253.22-140.49-421.79 94.2-536.86 446.2-375.94 224.12 102.47 446.2 168.32 446.2 375.94z" fill="#6c63ff"/>
<path transform="translate(-55.067 -38.747)" d="m800.93 263.5v528.37c-72.9 43.69-162.06 69.38-258.33 69.38-128.25 0-226.08-48.47-299.67-122.72v-475.03z" fill="#f2f2f2"/>
<path transform="translate(-55.067 -38.747)" d="m296.6 520.96a349.11 349.11 0 0 1 90.156-16.073 282.15 282.15 0 0 1 45.97 1.7986 287.56 287.56 0 0 1 44.616 9.5521c14.421 4.1752 28.642 8.9985 43.014 13.333a401.18 401.18 0 0 0 44.455 10.848 376.87 376.87 0 0 0 45.17 5.3837c15.003 0.87194 30.153 1.0421 45.114-0.55621a138.03 138.03 0 0 0 40.59-10.289 123.97 123.97 0 0 0 33.011-21.173q3.6722-3.2781 7.0661-6.8452c1.3347-1.3952-0.78353-3.5198-2.1213-2.1213-19.125 19.992-44.262 32.388-71.527 36.528-14.853 2.2551-29.99 2.3859-44.973 1.8044a370.06 370.06 0 0 1-45.715-4.619 382.03 382.03 0 0 1-44.275-10.078c-14.288-4.1393-28.381-8.9117-42.619-13.215a320.73 320.73 0 0 0-43.879-10.454 275.94 275.94 0 0 0-45.019-3.1247 344.2 344.2 0 0 0-88.973 13.176q-5.4548 1.5316-10.859 3.2326c-1.836 0.5756-1.0521 3.4727 0.79752 2.8928z" fill="#3f3d56"/>
<path transform="translate(-55.067 -38.747)" d="m296.6 596.96a349.11 349.11 0 0 1 90.156-16.073 282.15 282.15 0 0 1 45.97 1.7986 287.56 287.56 0 0 1 44.616 9.5521c14.421 4.1752 28.642 8.9985 43.014 13.333a401.18 401.18 0 0 0 44.455 10.848 376.87 376.87 0 0 0 45.17 5.3837c15.003 0.87194 30.153 1.0421 45.114-0.55621a138.03 138.03 0 0 0 40.59-10.289 123.97 123.97 0 0 0 33.011-21.173q3.6722-3.2781 7.0661-6.8452c1.3347-1.3952-0.78353-3.5198-2.1213-2.1213-19.125 19.992-44.262 32.388-71.527 36.528-14.853 2.2551-29.99 2.3859-44.973 1.8044a370.06 370.06 0 0 1-45.715-4.619 382.03 382.03 0 0 1-44.275-10.078c-14.288-4.1393-28.381-8.9117-42.619-13.215a320.73 320.73 0 0 0-43.879-10.454 275.94 275.94 0 0 0-45.019-3.1247 344.2 344.2 0 0 0-88.973 13.176q-5.4548 1.5316-10.859 3.2326c-1.836 0.5756-1.0521 3.4727 0.79752 2.8928z" fill="#3f3d56"/>
<path transform="translate(-55.067 -38.747)" d="m296.6 451.96a349.11 349.11 0 0 1 90.156-16.073 282.15 282.15 0 0 1 45.97 1.7986 287.56 287.56 0 0 1 44.616 9.5521c14.421 4.1752 28.642 8.9985 43.014 13.333a401.18 401.18 0 0 0 44.455 10.848 376.87 376.87 0 0 0 45.17 5.3837c15.003 0.87194 30.153 1.0421 45.114-0.55621a138.03 138.03 0 0 0 40.59-10.289 123.97 123.97 0 0 0 33.011-21.173q3.6722-3.2781 7.0661-6.8452c1.3347-1.3952-0.78353-3.5198-2.1213-2.1213-19.125 19.992-44.262 32.388-71.527 36.528-14.853 2.2551-29.99 2.3859-44.973 1.8044a370.06 370.06 0 0 1-45.715-4.619 382.03 382.03 0 0 1-44.275-10.078c-14.288-4.1393-28.381-8.9117-42.619-13.215a320.73 320.73 0 0 0-43.879-10.454 275.94 275.94 0 0 0-45.019-3.1247 344.2 344.2 0 0 0-88.973 13.176q-5.4548 1.5316-10.859 3.2326c-1.836 0.5756-1.0521 3.4727 0.79752 2.8928z" fill="#3f3d56"/>
<path transform="translate(-55.067 -38.747)" d="m293.03 321.5c7.2584-3.2156 15.573-2.6548 23.106-0.79035 8.1224 2.0104 15.771 5.5066 23.767 7.924a82.271 82.271 0 0 0 43.978 0.83424 81.063 81.063 0 0 0 23.032-9.8719c1.6306-1.025 0.12677-3.6219-1.5142-2.5904a79.487 79.487 0 0 1-42.32 12.065 77.647 77.647 0 0 1-22.154-3.262c-7.9373-2.3799-15.525-5.8351-23.566-7.8845-8.5191-2.1712-17.655-2.6421-25.844 0.98574-1.7616 0.7804-0.237 3.3662 1.5142 2.5904z" fill="#3f3d56"/>
<circle cx="460.87" cy="696.76" r="46" fill="#3f3d56"/>
<circle cx="212.87" cy="105.76" r="25" fill="#f2f2f2"/>
<circle cx="431.87" cy="176.76" r="17" fill="#f2f2f2"/>
<circle cx="155.87" cy="339.76" r="17" fill="#f2f2f2"/>
<rect x="85.547" y="213.46" width="1.8747" height="335.24" fill="#3f3d56"/>
<ellipse cx="86.846" cy="436.55" rx="36.557" ry="83.424" fill="#3f3d56"/>
<ellipse cx="86.846" cy="246.27" rx="36.557" ry="83.424" fill="#3f3d56"/>
<path transform="translate(-55.067 -38.747)" d="m142.81 216.86-1.796-0.53824c0.1135-0.379 11.135-38.147-6.962-62.461-10.221-13.732-27.76-20.695-52.131-20.695v-1.8747c24.999 0 43.046 7.2192 53.64 21.457 18.657 25.076 7.3652 63.724 7.249 64.111z" fill="#3f3d56"/>
<circle cx="26.855" cy="93.483" r="23.434" fill="#3f3d56"/>
<path transform="translate(-55.067 -38.747)" d="m825.81 663.42-17.532 161.3h120.97l5.2598-12.273 7.013 12.273h113.96s-8.7662-166.56-24.546-171.82-205.13 10.52-205.13 10.52z" fill="#2f2e41"/>
<circle cx="874.18" cy="209.16" r="61.364" fill="#ffb8b8"/>
<path transform="translate(-55.067 -38.747)" d="m894.18 286.48s5.2598 56.104 0 59.611 84.156 1.7533 84.156 1.7533-12.273-50.844 0-75.39z" fill="#ffb8b8"/>
<path transform="translate(-55.067 -38.747)" d="m925.74 333.81s45.113 7.0264 48.855-7.0063l23.028 31.552 1.7532 315.59s-187.6 22.792-194.61-14.026 71.883-327.86 71.883-327.86l19.862-1.2857s25.722 3.039 29.229 3.039z" fill="#d0cde1"/>
<path transform="translate(-55.067 -38.747)" d="m896.21 316.38-30.083 10.424-85.909 21.039 3.5065 210.39s-73.637 210.39-40.325 226.17 80.65-21.039 94.676-47.338 63.117-390.98 63.117-397.99-4.9819-22.697-4.9819-22.697z" fill="#3f3d56"/>
<path transform="translate(-55.067 -38.747)" d="m973.47 316.38 11.882 10.424 84.156 38.572-42.078 212.14s56.104 192.86 35.065 203.38-52.598 40.325-59.611 22.792-48.31-467.93-29.415-487.31z" fill="#3f3d56"/>
<path transform="translate(-55.067 -38.747)" d="m1022.2 596.8s-78.896-33.312-80.65-3.5065 89.416 50.844 89.416 42.078-8.7663-38.572-8.7663-38.572z" fill="#ffb8b8"/>
<path transform="translate(-55.067 -38.747)" d="m829.31 584.53s91.169 68.377 56.104 85.909-80.65-61.364-80.65-61.364z" fill="#ffb8b8"/>
<path transform="translate(-55.067 -38.747)" d="m956.49 158.02a3.3845 3.3845 0 0 1 3.2568-1.9327c-28.093-1.6805-57.685 1.5939-81.188 17.075-6.5823 4.3357-12.729 9.6376-20.223 12.081l6.0827 4.7701-7.2676 2.2154 10.695 6.9126a9.2704 9.2704 0 0 1-8.8286 2.9577c4.6482 1.358 8.0705 5.4944 9.8087 10.014s2.0505 9.4422 2.3442 14.276c1.7966-6.9743 9.408-11.08 16.598-11.497s14.202 1.9551 21.199 3.6604a117.27 117.27 0 0 0 46.548 1.7906c-5.2565 10.549-0.82242 23.131 3.6396 34.04l8.9092 21.781c4.9463 0.49749 8.4424-4.4214 12.169-7.7118 3.3964-2.9989-10.125 23.376-8.0318 22.41 2.7198-1.2554 31.421-32.944 32.765-35.621 6.1321-12.214 9.8112-25.838 9.2579-39.494s-5.55-27.318-14.963-37.228c-6.3903-6.7271-15.231-7.9053-21.746-13.496-2.5641-2.2006-2.5735-3.9197-6.0972-5.2027-1.1704-0.42612-14.735-2.2315-14.929-1.802z" fill="#2f2e41"/>
<path transform="translate(-55.067 -38.747)" d="m792.49 353.1-12.273-5.2598-98.182 161.3s-17.533 42.078 14.026 61.364 105.2 77.143 105.2 77.143l42.078-64.87s-85.909-40.325-80.65-56.104 33.312-57.857 33.312-57.857z" fill="#3f3d56"/>
<path transform="translate(-55.067 -38.747)" d="m1046.7 361.86 22.792 3.5065s94.676 185.84 71.883 220.91-115.71 84.156-115.71 84.156-1.7532-57.857-17.533-78.896l54.351-21.039-29.805-115.71z" fill="#3f3d56"/>
</svg>
